<svg width="1654" height="121" viewBox="0 0 1654 121" fill="none" xmlns="http://www.w3.org/2000/svg">
<path fill-rule="evenodd" clip-rule="evenodd" d="M-50 0L21.343 4.17052C94.032 8.34104 236.718 16.6821 380.75 30.7977C524.782 45.2341 667.468 65.7659 811.5 69.9364C955.532 74.1069 1098.22 61.5954 1242.25 57.7457C1386.28 53.5751 1528.97 57.7457 1601.66 59.6705L1673 61.5954V111H1601.66C1528.97 111 1386.28 111 1242.25 111C1098.22 111 955.532 111 811.5 111C667.468 111 524.782 111 380.75 111C236.718 111 94.032 111 21.343 111H-50V0Z" fill="#20DF7F" fill-opacity="0.09"/>
<path fill-rule="evenodd" clip-rule="evenodd" d="M-50 72.4L7.43333 81.28C64.8667 90.16 179.733 107.92 294.6 103.48C409.467 99.04 524.333 72.4 639.2 54.64C754.067 36.88 868.933 28 983.8 28C1098.67 28 1213.53 36.88 1328.4 52.42C1443.27 67.96 1558.13 90.16 1615.57 101.26L1673 112.36V139H1615.57C1558.13 139 1443.27 139 1328.4 139C1213.53 139 1098.67 139 983.8 139C868.933 139 754.067 139 639.2 139C524.333 139 409.467 139 294.6 139C179.733 139 64.8667 139 7.43333 139H-50V72.4Z" fill="#E5E5E5" fill-opacity="0.13"/>
</svg>
